<?xml version="1.0" standalone="no"?><!DOCTYPE svg PUBLIC "-//W3C//DTD SVG 1.1//EN" "http://www.w3.org/Graphics/SVG/1.1/DTD/svg11.dtd"><svg t="1519184717014" class="icon" style="" viewBox="0 0 1024 1024" version="1.1" xmlns="http://www.w3.org/2000/svg" p-id="2322" xmlns:xlink="http://www.w3.org/1999/xlink" width="42" height="42"><defs><style type="text/css"></style></defs><path d="M670.72 793.6 353.28 793.6c-44.373333 0-71.68-23.893333-71.68-63.146667L281.6 293.546667c0-39.253333 27.306667-63.146667 71.68-63.146667l317.44 0c44.373333 0 71.68 23.893333 71.68 63.146667l0 435.2C742.4 769.706667 715.093333 793.6 670.72 793.6zM353.28 264.533333c-37.546667 0-37.546667 20.48-37.546667 29.013333l0 435.2c0 8.533333 0 29.013333 37.546667 29.013333l317.44 0c37.546667 0 37.546667-20.48 37.546667-29.013333L708.266667 293.546667c0-8.533333 0-29.013333-37.546667-29.013333L353.28 264.533333z" p-id="2323" fill="#1296db"></path><path d="M401.066667 793.6c-1.706667 0-5.12 0-6.826667-1.706667-15.36-6.826667-15.36-6.826667-10.24-544.426667 0-10.24 6.826667-17.066667 17.066667-17.066667 10.24 0 17.066667 8.533333 17.066667 17.066667-1.706667 196.266667-3.413333 494.933333 0 523.946667 1.706667 5.12 0 11.946667-5.12 17.066667C409.6 791.893333 406.186667 793.6 401.066667 793.6z" p-id="2324" fill="#1296db"></path><path d="M622.933333 401.066667l-119.466667 0c-10.24 0-17.066667-6.826667-17.066667-17.066667s6.826667-17.066667 17.066667-17.066667l119.466667 0c10.24 0 17.066667 6.826667 17.066667 17.066667S633.173333 401.066667 622.933333 401.066667z" p-id="2325" fill="#1296db"></path><path d="M622.933333 503.466667l-119.466667 0c-10.24 0-17.066667-6.826667-17.066667-17.066667s6.826667-17.066667 17.066667-17.066667l119.466667 0c10.24 0 17.066667 6.826667 17.066667 17.066667S633.173333 503.466667 622.933333 503.466667z" p-id="2326" fill="#1296db"></path></svg>