<?xml version="1.0" standalone="no"?><!DOCTYPE svg PUBLIC "-//W3C//DTD SVG 1.1//EN" "http://www.w3.org/Graphics/SVG/1.1/DTD/svg11.dtd"><svg t="1519184693529" class="icon" style="" viewBox="0 0 1024 1024" version="1.1" xmlns="http://www.w3.org/2000/svg" p-id="2107" xmlns:xlink="http://www.w3.org/1999/xlink" width="42" height="42"><defs><style type="text/css"></style></defs><path d="M542.08 173.824l206.912 0L608.896 467.072l0.832 1.536 32.448 0 130.496-273.088 129.088 273.088 33.664 0-139.328-294.784 0.064 0L796.16 142.336 565.568 142.336 565.568 122.176C565.568 90.112 539.456 64 507.392 64 475.264 64 449.216 90.112 449.216 122.176l0 20.096L225.664 142.272l0 31.488 3.072 0-140.16 293.312 0.832 1.536 32.448 0 130.496-273.088L381.44 468.608l33.664 0L275.84 173.824l195.008 0 0 680.064-245.12 73.536L225.728 960l570.432 0 0-32.576L542.08 853.888 542.08 173.824z" p-id="2108" fill="#1296db"></path><path d="M415.168 512c0-1.856-0.192-3.648-0.256-5.44L88.896 506.56C88.832 508.352 88.64 510.144 88.64 512c0 90.176 73.088 163.328 163.264 163.328C342.08 675.328 415.168 602.176 415.168 512z" p-id="2109" fill="#1296db"></path><path d="M609.152 506.56C609.088 508.352 608.896 510.144 608.896 512c0 90.176 73.152 163.328 163.264 163.328S935.36 602.176 935.36 512c0-1.856-0.192-3.648-0.256-5.44L609.152 506.56z" p-id="2110" fill="#1296db"></path></svg>