<?xml version="1.0" standalone="no"?><!DOCTYPE svg PUBLIC "-//W3C//DTD SVG 1.1//EN" "http://www.w3.org/Graphics/SVG/1.1/DTD/svg11.dtd"><svg t="1519184527792" class="icon" style="" viewBox="0 0 1024 1024" version="1.1" xmlns="http://www.w3.org/2000/svg" p-id="1026" xmlns:xlink="http://www.w3.org/1999/xlink" width="42" height="42"><defs><style type="text/css"></style></defs><path d="M865.381911 958.850188 605.972766 958.850188c-9.890254 0-17.907858-8.017604-17.907858-17.907858l0-243.894799-151.449317 0 0 243.894799c0 9.890254-8.017604 17.907858-17.907858 17.907858l-261.454734 0c-9.890254 0-17.907858-8.017604-17.907858-17.907858l0-467.487204L81.888544 473.455125c-7.470135 0-14.155395-4.6366-16.773012-11.632945-2.617617-6.996344-0.617054-14.881942 5.018294-19.785625l429.4284-373.619326c6.756891-5.878894 16.817014-5.861498 23.553439 0.038886l101.277638 88.704275L624.393301 81.927941c0-9.890254 8.017604-17.907858 17.907858-17.907858l148.72016 0c9.890254 0 17.907858 8.017604 17.907858 17.907858l0 235.132228 143.790894 124.494409c4.103458 3.281743 6.731308 8.330736 6.731308 13.992689 0 9.890254-8.018627 17.907858-17.907858 17.907858-0.00921 0-0.01535 0-0.021489 0l-58.232263 0 0 467.487204C883.28977 950.832584 875.272165 958.850188 865.381911 958.850188zM623.880625 923.034471l223.593428 0 0-467.487204c0-9.890254 8.017604-17.907858 17.907858-17.907858l28.097942 0-114.180506-98.857519c-3.928472-3.40147-6.185886-8.341992-6.185886-13.538341L773.113461 99.835799 660.209018 99.835799l0 96.814999c0 7.028067-4.111644 13.406335-10.511401 16.309454-6.399757 2.901073-13.906731 1.791809-19.195178-2.837628L511.278057 105.699344l-381.523343 331.940065 27.499307 0c9.890254 0 17.907858 8.017604 17.907858 17.907858l0 467.487204 225.639017 0 0-243.894799c0-9.890254 8.017604-17.907858 17.907858-17.907858l187.265034 0c9.890254 0 17.907858 8.017604 17.907858 17.907858L623.881648 923.034471z" p-id="1027" fill="#1296db"></path></svg>